<svg fill="none" height="24" viewBox="0 0 24 24" width="34" xmlns="http://www.w3.org/2000/svg"><g stroke="#1c274c" stroke-width="1.5"><circle cx="12" cy="12" r="2"/><g stroke-linecap="round"><path d="m12 10c5 0 4.6 12-3 12"/><path d="m12.3115 14c-4.99998 0-4.59998-12 3-12"/><path d="m10.6313 10.6961c3.5356-3.53557 11.738 5.2326 6.364 10.6066" opacity=".5" stroke-dasharray="2 2"/><path d="m13.6802 13.3039c-3.5355 3.5356-11.73798-5.23255-6.36397-10.60656" opacity=".5" stroke-dasharray="2 2"/><path d="m10.8516 13.5242c-3.53555-3.53555 5.2326-11.73798 10.6066-6.36397" opacity=".5" stroke-dasharray="2 2"/><path d="m13.4599 10.4758c3.5356 3.5355-5.23254 11.738-10.60656 6.364" opacity=".5" stroke-dasharray="2 2"/><path d="m10 12.3115c0-4.99998 12-4.59998 12 3"/><path d="m14 12c0 5-12 4.6-12-3"/></g></g></svg>