<svg viewBox="0 0 1032.706 1063.951" xmlns="http://www.w3.org/2000/svg"><path d="M503.298 254.06h26.16c207.955 1.126 390.215 110.098 493.818 273.79l1.424 2.41 8.006 12.522-8.006 12.52c-105.028 166.104-287.287 275.076-495.077 276.2l-.167.002h-14.57c-105.804 0-205.327-26.89-292.108-74.21l3.2 1.6C136.333 709.448 62.91 640.685 9.43 557.838l-1.422-2.35L0 542.967l8.006-12.52C113.008 364.264 295.29 255.22 503.123 254.06h.173zm13.08 46.546h-13.08c-186.234 1.03-350.046 96.092-446.488 240.082l-1.233 1.955C156.537 689.573 323.672 784.69 513.02 784.69c1.18 0 2.36-.004 3.538-.01h-.18 13.078c186.234-1.03 350.046-96.092 446.488-240.082l1.233-1.955c-97.692-145.97-261.544-241.04-447.662-242.036h-12.672zm0-46.546c159.378 0 288.58 129.202 288.58 288.582s-129.2 288.582-288.58 288.582-288.583-129.202-288.583-288.582S356.997 254.06 516.377 254.06zm0 530.618c133.672 0 242.035-108.363 242.035-242.036S650.05 300.606 516.377 300.606 274.34 408.97 274.34 542.642s108.364 242.036 242.037 242.036zm0-353.745c61.694 0 111.708 50.014 111.708 111.71S578.072 654.35 516.376 654.35c-61.694 0-111.708-50.013-111.708-111.708s50.014-111.71 111.71-111.71zm0 176.873c35.988 0 65.163-29.175 65.163-65.164s-29.174-65.164-65.163-65.164c-35.99 0-65.164 29.175-65.164 65.164 0 35.99 29.175 65.164 65.164 65.164z"/></svg>